<svg xmlns="http://www.w3.org/2000/svg" xmlns:xlink="http://www.w3.org/1999/xlink" width="500" zoomAndPan="magnify" viewBox="0 0 375 374.999991" height="500" preserveAspectRatio="xMidYMid meet" version="1.0">
    <defs>
        <clipPath id="d4f5776cf1">
            <path d="M 0 64.328125 L 375 64.328125 L 375 310.328125 L 0 310.328125 Z M 0 64.328125 " clip-rule="nonzero"/>
        </clipPath>
    </defs>
    <g clip-path="url(#d4f5776cf1)">
        <path fill="#d9d9d9" d="M 130.945312 75.769531 C 57.925781 101.273438 4.277344 169.347656 1.035156 251.316406 C 0.21875 271.898438 2.652344 291.863281 7.859375 310.707031 L 8.472656 310.5 C 3.335938 291.929688 0.992188 272.234375 1.902344 251.917969 C 2.101562 247.492188 2.460938 243.113281 2.953125 238.777344 C 17.921875 241.183594 33.15625 242.726562 48.597656 243.390625 C 50.011719 260.582031 53.222656 277.460938 57.964844 293.683594 L 58.40625 293.53125 C 53.683594 277.378906 50.542969 260.566406 49.238281 243.421875 C 61.90625 243.949219 74.71875 243.882812 87.636719 243.175781 C 96.277344 242.707031 104.828125 241.957031 113.300781 240.945312 C 115.789062 251.394531 118.648438 261.765625 121.847656 271.976562 L 122.105469 271.890625 C 118.90625 261.699219 116.054688 251.335938 113.589844 240.902344 C 140.234375 237.703125 166.003906 231.882812 190.652344 223.714844 L 203.636719 260.585938 L 191.265625 223.507812 C 215.316406 215.492188 238.304688 205.25 259.988281 193.023438 C 264.046875 202.132812 267.867188 211.539062 271.394531 221.164062 L 271.648438 221.078125 C 268.113281 211.4375 264.289062 202.011719 260.242188 192.878906 C 277.695312 183.019531 294.3125 171.878906 309.957031 159.589844 C 318.03125 172.484375 325.023438 186.390625 330.707031 201.007812 L 331.183594 200.847656 C 325.472656 186.164062 318.492188 172.183594 310.449219 159.195312 C 321.039062 150.847656 331.191406 141.976562 340.851562 132.617188 C 354.785156 148.425781 366.082031 166.53125 374.09375 186.269531 L 374.722656 186.054688 C 346.933594 117.65625 281.136719 68.234375 202.566406 65.125 C 182.796875 64.34375 163.609375 66.550781 145.421875 71.339844 C 143.867188 71.710938 142.324219 72.113281 140.792969 72.550781 C 139.609375 72.835938 138.445312 73.191406 137.308594 73.601562 C 137.21875 73.636719 137.132812 73.679688 137.039062 73.714844 C 136.230469 73.976562 135.414062 74.234375 134.613281 74.519531 C 134.453125 74.574219 134.300781 74.640625 134.140625 74.699219 C 133.074219 75.050781 132.003906 75.394531 130.945312 75.765625 Z M 137.402344 76.960938 C 137.867188 76.8125 138.328125 76.667969 138.792969 76.527344 L 146.628906 98.746094 C 135.074219 102.46875 123.425781 105.34375 111.757812 107.417969 C 117.5625 91.902344 126.289062 81.378906 137.402344 76.960938 Z M 141.882812 75.589844 C 142.164062 75.507812 142.453125 75.4375 142.734375 75.359375 C 150.769531 73.664062 159.855469 74.855469 169.859375 79.324219 C 173.40625 80.910156 176.964844 82.875 180.539062 85.167969 C 170.953125 89.796875 161 93.902344 150.683594 97.40625 C 150.226562 97.5625 149.769531 97.699219 149.3125 97.851562 Z M 124.105469 82.335938 C 118.132812 88.4375 113.292969 97.015625 109.746094 107.757812 C 102.335938 109.015625 94.910156 109.945312 87.507812 110.558594 C 98.035156 98.59375 110.375 89.03125 124.105469 82.335938 Z M 156.511719 72.40625 C 167.136719 70.898438 178.269531 70.898438 189.777344 72.554688 C 193.324219 73.066406 196.84375 73.738281 200.34375 74.539062 C 194.523438 77.992188 188.539062 81.246094 182.402344 84.269531 C 177.929688 81.144531 173.457031 78.546875 169.023438 76.527344 C 164.675781 74.542969 160.503906 73.179688 156.511719 72.40625 Z M 104.957031 90.535156 C 97.308594 96.308594 90.257812 103.113281 83.929688 110.839844 C 80.417969 111.085938 76.917969 111.25 73.414062 111.351562 C 83.195312 103.449219 93.757812 96.460938 104.957031 90.53125 Z M 178.863281 68.65625 C 186.882812 67.9375 195.023438 67.6875 203.265625 67.972656 C 205.613281 68.054688 207.957031 68.183594 210.28125 68.347656 C 208.003906 69.839844 205.695312 71.308594 203.363281 72.734375 C 198.628906 71.46875 193.835938 70.460938 189.011719 69.734375 C 185.59375 69.222656 182.210938 68.878906 178.863281 68.65625 Z M 70.351562 113.875 C 74.1875 113.8125 78.035156 113.671875 81.882812 113.4375 C 74.675781 122.703125 68.449219 133.207031 63.363281 144.765625 C 56.234375 144.5 49.148438 143.972656 42.117188 143.195312 C 50.476562 132.46875 59.949219 122.636719 70.351562 113.875 Z M 214.304688 68.671875 C 230.382812 70.125 245.828125 73.511719 260.441406 78.597656 C 255.246094 82.863281 249.894531 86.96875 244.394531 90.882812 C 232.355469 83.339844 219.691406 77.488281 206.617188 73.640625 C 209.210938 72.023438 211.777344 70.371094 214.304688 68.671875 Z M 85.214844 113.238281 C 85.21875 113.234375 85.230469 113.234375 85.234375 113.230469 C 93.113281 112.65625 101.011719 111.71875 108.910156 110.417969 C 106.042969 119.953125 104.128906 131.058594 103.269531 143.53125 C 90.546875 144.789062 77.890625 145.210938 65.363281 144.828125 C 70.828125 133.097656 77.496094 122.5 85.214844 113.238281 Z M 203.796875 75.378906 C 217.339844 78.867188 230.457031 84.492188 242.90625 91.9375 C 232.785156 99.039062 222.164062 105.507812 211.085938 111.328125 C 202.417969 101.074219 193.546875 92.472656 184.664062 85.914062 C 191.226562 82.644531 197.609375 79.128906 203.796875 75.378906 Z M 110.8125 110.09375 C 123.050781 107.984375 135.28125 104.992188 147.429688 101.074219 L 158.570312 132.691406 C 149.578125 135.363281 140.378906 137.644531 130.976562 139.480469 C 122.058594 141.222656 113.148438 142.523438 104.277344 143.433594 C 105.355469 130.765625 107.578125 119.578125 110.8125 110.09375 Z M 182.929688 86.75 C 192.09375 93.027344 201.265625 101.519531 210.214844 111.796875 C 194.582031 119.941406 178.046875 126.742188 160.707031 132.039062 L 150.078125 100.195312 C 150.53125 100.042969 150.980469 99.90625 151.429688 99.753906 C 162.34375 96.046875 172.84375 91.679688 182.929688 86.75 Z M 41.160156 144.433594 C 48.332031 145.1875 55.574219 145.675781 62.851562 145.90625 C 56.957031 159.59375 52.667969 174.734375 50.199219 191.027344 C 38.773438 190.414062 27.4375 189.214844 16.230469 187.464844 C 22.667969 171.992188 31.09375 157.558594 41.160156 144.433594 Z M 261.601562 79.003906 C 275.644531 83.992188 288.886719 90.554688 301.140625 98.457031 C 293.878906 105.394531 286.28125 112.019531 278.382812 118.308594 C 268.078125 107.914062 256.953125 98.851562 245.214844 91.402344 C 250.824219 87.445312 256.300781 83.316406 261.601562 79.003906 Z M 64.828125 145.960938 C 77.507812 146.277344 90.320312 145.800781 103.207031 144.46875 C 102.335938 158.011719 102.695312 173.136719 104.402344 189.582031 C 86.578125 191.5 68.839844 191.976562 51.308594 191.089844 C 54 174.753906 58.601562 159.605469 64.832031 145.960938 Z M 243.742188 92.433594 C 255.722656 99.699219 267.058594 108.648438 277.546875 118.976562 C 264.613281 129.210938 250.863281 138.558594 236.347656 146.878906 C 228.453125 133.886719 220.132812 122.109375 211.597656 111.9375 C 222.785156 106.085938 233.507812 99.558594 243.738281 92.433594 Z M 104.214844 144.351562 C 112.820312 143.429688 121.460938 142.152344 130.113281 140.460938 C 139.898438 138.546875 149.464844 136.167969 158.824219 133.367188 L 173.410156 174.789062 C 165.773438 177.277344 158 179.511719 150.082031 181.480469 C 135.035156 185.21875 119.945312 187.875 104.929688 189.515625 C 103.335938 173.003906 103.132812 157.851562 104.214844 144.351562 Z M 210.738281 112.378906 C 219.417969 122.417969 227.882812 134.140625 235.898438 147.125 C 216.800781 158.035156 196.394531 167.195312 174.832031 174.324219 L 160.945312 132.722656 C 178.359375 127.375 195 120.539062 210.738281 112.378906 Z M 15.554688 189.164062 C 26.90625 190.851562 38.394531 191.996094 49.972656 192.535156 C 48.027344 206.074219 47.335938 220.398438 48.0625 235.339844 C 48.171875 237.625 48.324219 239.894531 48.5 242.171875 C 33.152344 241.421875 18 239.761719 3.117188 237.257812 C 5.167969 220.449219 9.425781 204.320312 15.554688 189.164062 Z M 302.214844 99.140625 C 316.03125 108.179688 328.550781 118.953125 339.5 131.117188 C 329.984375 140.492188 319.972656 149.371094 309.53125 157.738281 C 300.585938 143.515625 290.367188 130.488281 279.152344 119.054688 C 287.152344 112.746094 294.847656 106.09375 302.214844 99.140625 Z M 51.070312 192.574219 C 68.710938 193.339844 86.570312 192.738281 104.515625 190.699219 C 105.351562 198.511719 106.484375 206.617188 107.9375 214.988281 C 109.386719 223.335938 111.109375 231.6875 113.066406 239.992188 C 105.101562 240.921875 97.058594 241.605469 88.941406 242.046875 C 75.550781 242.777344 62.28125 242.8125 49.15625 242.191406 C 49.007812 240.128906 48.871094 238.058594 48.777344 235.984375 C 48.101562 220.816406 48.921875 206.285156 51.074219 192.574219 Z M 278.316406 119.734375 C 289.675781 131.039062 300.019531 143.957031 309.035156 158.128906 C 293.519531 170.519531 277.042969 181.75 259.699219 191.6875 C 252.671875 175.960938 244.964844 161.132812 236.785156 147.597656 C 251.398438 139.269531 265.269531 129.957031 278.316406 119.734375 Z M 105.027344 190.640625 C 119.695312 188.949219 134.414062 186.3125 149.128906 182.652344 C 157.464844 180.582031 165.644531 178.203125 173.675781 175.570312 L 190.3125 222.800781 C 165.722656 231.003906 139.984375 236.820312 113.355469 239.949219 C 111.476562 231.898438 109.835938 223.804688 108.449219 215.710938 C 106.96875 207.050781 105.832031 198.6875 105.027344 190.640625 Z M 236.335938 147.847656 C 244.597656 161.308594 252.375 176.109375 259.441406 191.835938 C 237.851562 204.183594 214.949219 214.527344 190.945312 222.585938 L 175.097656 175.105469 C 196.691406 167.921875 217.15625 158.746094 236.335938 147.847656 Z M 236.335938 147.847656 " />
    </g>
</svg>